<svg width="43" height="40" viewBox="0 0 43 40" fill="none" xmlns="http://www.w3.org/2000/svg">
<path d="M12.7176 25.9749L14.6254 24.1851L17.1402 26.5415L15.2311 28.3313L12.7176 25.9749Z" fill="#B0BDC6"/>
<path d="M13.3219 26.5415L15.231 24.7529L16.5345 25.975L14.6254 27.7642L13.3219 26.5415Z" fill="#DFE9EF"/>
<path d="M13.7919 24.9269L14.5832 24.1851L17.0968 26.5427L16.3054 27.284L13.7919 24.9269Z" fill="#B0BDC6"/>
<path d="M15.468 25.7132C21.393 31.2679 31.0705 31.2679 37.0614 25.7132C42.9864 20.1585 42.9864 11.0859 37.0614 5.46947C31.1364 -0.146941 21.4589 -0.085222 15.468 5.46947C9.47721 11.0859 9.47721 20.1585 15.468 25.7132ZM16.8505 6.82728C22.0514 1.9515 30.4122 1.9515 35.5472 6.82728C40.748 11.7031 40.748 19.5413 35.5472 24.3554C30.3464 29.2312 21.9855 29.2312 16.8505 24.3554C11.7155 19.5413 11.7155 11.7031 16.8505 6.82728Z" fill="#DFE9EF"/>
<path d="M16.5213 24.7257C21.8538 29.725 30.5438 29.725 35.9422 24.7257C41.2747 19.7265 41.2747 11.5796 35.9422 6.5187C30.6097 1.51948 21.9197 1.51948 16.5213 6.5187C11.1888 11.5796 11.1888 19.7265 16.5213 24.7257ZM17.2455 7.19761C22.183 2.5687 30.2805 2.5687 35.218 7.19761C40.1555 11.8265 40.1555 19.4179 35.218 24.0468C30.2805 28.6757 22.183 28.6757 17.2455 24.0468C12.308 19.4179 12.308 11.8265 17.2455 7.19761" fill="#B0BDC6"/>
<path opacity="0.6" d="M19.0231 18.4922C23.3022 22.5039 30.2806 22.5039 34.5597 18.4922C35.6789 17.4429 36.5347 16.2086 37.0614 14.8508C37.3247 17.8133 36.2714 20.8375 33.9014 23.0594C29.6222 27.0711 22.6439 27.0711 18.3647 23.0594C15.2047 20.0969 14.4147 15.7765 15.8631 12.1351C16.1264 14.4804 17.1797 16.7023 19.0231 18.4922" fill="#A6AEB0"/>
<path d="M2.95117 33.18L12.0283 24.6696L16.5905 28.9467L7.51276 37.4565L2.95117 33.18Z" fill="#333333"/>
<path d="M3.97485 34.1397L13.0533 25.6306L15.5668 27.9876L6.48837 36.4955L3.97485 34.1397Z" fill="#575B5E"/>
<path d="M2.03804 32.7493C1.31387 33.4282 7.17304 38.9828 7.96304 38.3039L8.42387 37.8719C9.14804 37.193 3.28887 31.6383 2.49887 32.3172L2.03804 32.7493" fill="#B0BDC6"/>
<path d="M3.02554 33.675C2.30138 34.3539 6.18555 38.0571 6.97555 37.3782L7.43638 36.9461C8.16055 36.2672 4.27638 32.5641 3.48638 33.243L3.02554 33.675" fill="#DFE9EF"/>
</svg>
