<?xml version="1.0" standalone="no"?>
<!DOCTYPE svg PUBLIC "-//W3C//DTD SVG 20010904//EN"
 "http://www.w3.org/TR/2001/REC-SVG-20010904/DTD/svg10.dtd">
<svg version="1.0" xmlns="http://www.w3.org/2000/svg"
 width="981.000000pt" height="981.000000pt" viewBox="0 0 981.000000 981.000000"
 preserveAspectRatio="xMidYMid meet">

<g transform="translate(0.000000,981.000000) scale(0.100000,-0.100000)"
fill="#000000" stroke="none">
<path fill="#2c5b69" d="M4770 9792 c-36 -9 -87 -30 -115 -46 -65 -38 -153 -128 -187 -192
-61 -113 -58 7 -58 -2166 l0 -1988 -1987 0 c-2174 0 -2054 3 -2167 -58 -65
-35 -163 -133 -198 -198 -75 -138 -75 -330 0 -468 35 -65 124 -154 193 -194
115 -65 -18 -62 2172 -62 l1987 0 0 -1998 c0 -2191 -4 -2035 57 -2157 33 -64
135 -165 201 -199 147 -75 325 -74 466 2 65 35 163 133 198 198 61 113 58 -7
58 2166 l0 1988 2018 2 2017 3 57 23 c126 51 242 168 288 290 27 71 37 197 21
274 -27 128 -132 268 -247 330 -113 61 7 58 -2166 58 l-1988 0 0 1988 c0 2173
3 2053 -58 2166 -35 65 -133 163 -198 198 -105 56 -243 71 -364 40z"/>
</g>
</svg>
