<?xml version="1.0" encoding="utf-8"?>
<!-- Svg Vector Icons : http://www.onlinewebfonts.com/icon -->
<!DOCTYPE svg PUBLIC "-//W3C//DTD SVG 1.1//EN" "http://www.w3.org/Graphics/SVG/1.1/DTD/svg11.dtd">
<svg version="1.1" xmlns="http://www.w3.org/2000/svg" xmlns:xlink="http://www.w3.org/1999/xlink" x="0px" y="0px" viewBox="0 0 1000 1000" enable-background="new 0 0 1000 1000" xml:space="preserve">
<metadata> Svg Vector Icons : http://www.onlinewebfonts.com/icon </metadata>
<g><g><g><g><path fill="#2c5b69" d="M500,10C229.4,10,10,229.4,10,500c0,270.7,219.4,490,490,490c270.7,0,490-219.3,490-490C990,229.4,770.7,10,500,10z M500,924.7C265.8,924.7,75.3,734.2,75.3,500S265.8,75.3,500,75.3S924.7,265.8,924.7,500S734.2,924.7,500,924.7z"/> <path fill="#2c5b69"  d="M761.3,467.3H532.7V238.7c0-18-14.7-32.7-32.7-32.7c-18,0-32.7,14.6-32.7,32.7v228.7H238.7c-18,0-32.7,14.6-32.7,32.7c0,18,14.6,32.7,32.7,32.7h228.7v228.7c0,18,14.6,32.7,32.7,32.7c18,0,32.7-14.7,32.7-32.7V532.7h228.7c18,0,32.7-14.7,32.7-32.7C794,482,779.3,467.3,761.3,467.3z"/></g></g></g><g></g><g></g><g></g><g></g><g></g><g></g><g></g><g></g><g></g><g></g><g></g><g></g><g></g><g></g><g></g></g>
</svg>